<svg xmlns="http://www.w3.org/2000/svg" viewBox="0 0 32 32" id="messages">
  <path fill="#8c9eff" d="M26 7H6a3 3 0 0 0-3 3v12a3 3 0 0 0 3 3h2.74l8.77 4.87A1 1 0 0 0 18 30a1 1 0 0 0 .51-.14A1 1 0 0 0 19 29v-4h7a3 3 0 0 0 3-3V10a3 3 0 0 0-3-3Z"></path>
  <path d="M21 17a1 1 0 0 1-.71-.29 1.15 1.15 0 0 1-.21-.33.94.94 0 0 1 0-.76.9.9 0 0 1 .54-.54 1 1 0 0 1 .76 0 1.15 1.15 0 0 1 .33.21 1 1 0 0 1 .21.33 1 1 0 0 1-.21 1.09 1.15 1.15 0 0 1-.33.21A1 1 0 0 1 21 17Z"></path>
  <path fill="#5f7cf9" d="M26 7H16v22l1.51.84A1 1 0 0 0 18 30a1 1 0 0 0 .51-.14A1 1 0 0 0 19 29v-4h7a3 3 0 0 0 3-3V10a3 3 0 0 0-3-3Z"></path>
  <path fill="#5f7cf9" d="M16 17a1 1 0 0 1-.38-.08 1.15 1.15 0 0 1-.33-.21 1 1 0 0 1-.21-1.09 1 1 0 0 1 .21-.33 1.15 1.15 0 0 1 .33-.21 1 1 0 0 1 .76 0 .9.9 0 0 1 .54.54.94.94 0 0 1 0 .76 1.15 1.15 0 0 1-.21.33A1 1 0 0 1 16 17zm-5 0a1 1 0 0 1-.38-.08 1.15 1.15 0 0 1-.33-.21 1 1 0 0 1-.21-1.09 1 1 0 0 1 .21-.33 1.15 1.15 0 0 1 .33-.21 1 1 0 0 1 .76 0 .9.9 0 0 1 .54.54.94.94 0 0 1 0 .76 1.15 1.15 0 0 1-.21.33A1 1 0 0 1 11 17z"></path>
  <path fill="#4062ed" d="M16.92 15.62a.9.9 0 0 0-.54-.54A1 1 0 0 0 16 15v2a1 1 0 0 0 .71-.29 1.15 1.15 0 0 0 .21-.33.94.94 0 0 0 0-.76zM21 17a1 1 0 0 1-.71-.29 1.15 1.15 0 0 1-.21-.33.94.94 0 0 1 0-.76.9.9 0 0 1 .54-.54 1 1 0 0 1 .76 0 1.15 1.15 0 0 1 .33.21 1 1 0 0 1 .21.33 1 1 0 0 1-.21 1.09 1.15 1.15 0 0 1-.33.21A1 1 0 0 1 21 17z"></path>
</svg>
